HIERARCHY
ROOT Hips
{
	OFFSET 0.000000 89.005402 0.000000
	CHANNELS 6 Xposition Yposition Zposition Xrotation Yrotation Zrotation
	JOINT Spine
	{
		OFFSET 0.116900 10.681000 0.373400
		CHANNELS 3 Xrotation Yrotation Zrotation
		JOINT Spine1
		{
			OFFSET 0.000000 13.840401 0.053500
			CHANNELS 3 Xrotation Yrotation Zrotation
			JOINT Spine2
			{
				OFFSET 0.000000 14.712700 -0.366200
				CHANNELS 3 Xrotation Yrotation Zrotation
				JOINT Neck
				{
					OFFSET 0.000000 35.415497 -3.314200
					CHANNELS 3 Xrotation Yrotation Zrotation
					JOINT Head
					{
						OFFSET 0.000000 16.899200 1.218300
						CHANNELS 3 Xrotation Yrotation Zrotation
						JOINT HeadTop_End
						{
							OFFSET 0.000000 22.206207 2.192500
							CHANNELS 3 Xrotation Yrotation Zrotation
							End Site
							{
								OFFSET 0.000000 22.314178 0.000000
							}
						}
					}
				}
				JOINT LeftShoulder
				{
					OFFSET 12.896400 26.716293 -4.548400
					CHANNELS 3 Xrotation Yrotation Zrotation
					JOINT LeftArm
					{
						OFFSET 19.027000 -4.857010 -1.718400
						CHANNELS 3 Xrotation Yrotation Zrotation
						JOINT LeftForeArm
						{
							OFFSET 24.179897 0.000000 0.000000
							CHANNELS 3 Xrotation Yrotation Zrotation
							JOINT LeftHand
							{
								OFFSET 27.156403 0.000000 0.000000
								CHANNELS 3 Xrotation Yrotation Zrotation
								JOINT LeftHandIndex1
								{
									OFFSET 16.441200 0.000000 0.000000
									CHANNELS 3 Xrotation Yrotation Zrotation
									JOINT LeftHandIndex2
									{
										OFFSET 4.821899 0.000000 0.000000
										CHANNELS 3 Xrotation Yrotation Zrotation
										JOINT LeftHandIndex3
										{
											OFFSET 6.386497 0.000000 0.000000
											CHANNELS 3 Xrotation Yrotation Zrotation
											JOINT LeftHandIndex4
											{
												OFFSET 5.188988 0.000000 0.000000
												CHANNELS 3 Xrotation Yrotation Zrotation
												End Site
												{
													OFFSET -0.178703 5.185913 0.000177
												}
											}
										}
									}
								}
								JOINT LeftHandThumb1
								{
									OFFSET 6.534897 -5.032593 5.900300
									CHANNELS 3 Xrotation Yrotation Zrotation
									JOINT LeftHandThumb2
									{
										OFFSET 3.818176 -2.204422 2.204423
										CHANNELS 3 Xrotation Yrotation Zrotation
										JOINT LeftHandThumb3
										{
											OFFSET 3.252098 -1.877594 1.877601
											CHANNELS 3 Xrotation Yrotation Zrotation
											JOINT LeftHandThumb4
											{
												OFFSET 5.251778 -3.032120 3.032117
												CHANNELS 3 Xrotation Yrotation Zrotation
												End Site
												{
													OFFSET 0.000023 6.780014 0.000000
												}
											}
										}
									}
								}
							}
						}
					}
				}
				JOINT RightShoulder
				{
					OFFSET -12.896300 26.716293 -4.548400
					CHANNELS 3 Xrotation Yrotation Zrotation
					JOINT RightArm
					{
						OFFSET -19.027000 -4.857010 -1.718400
						CHANNELS 3 Xrotation Yrotation Zrotation
						JOINT RightForeArm
						{
							OFFSET -24.179897 0.000000 0.000000
							CHANNELS 3 Xrotation Yrotation Zrotation
							JOINT RightHand
							{
								OFFSET -27.156403 0.000000 0.000000
								CHANNELS 3 Xrotation Yrotation Zrotation
								JOINT RightHandThumb1
								{
									OFFSET -6.591202 -4.852203 5.988100
									CHANNELS 3 Xrotation Yrotation Zrotation
									JOINT RightHandThumb2
									{
										OFFSET -3.818176 -2.204422 2.204423
										CHANNELS 3 Xrotation Yrotation Zrotation
										JOINT RightHandThumb3
										{
											OFFSET -3.252098 -1.877594 1.877601
											CHANNELS 3 Xrotation Yrotation Zrotation
											JOINT RightHandThumb4
											{
												OFFSET -5.251778 -3.032120 3.032117
												CHANNELS 3 Xrotation Yrotation Zrotation
												End Site
												{
													OFFSET -0.000023 6.780014 0.000000
												}
											}
										}
									}
								}
								JOINT RightHandIndex1
								{
									OFFSET -16.029404 0.000000 0.000000
									CHANNELS 3 Xrotation Yrotation Zrotation
									JOINT RightHandIndex2
									{
										OFFSET -5.213303 0.000000 0.000000
										CHANNELS 3 Xrotation Yrotation Zrotation
										JOINT RightHandIndex3
										{
											OFFSET -6.386528 0.000000 0.000000
											CHANNELS 3 Xrotation Yrotation Zrotation
											JOINT RightHandIndex4
											{
												OFFSET -5.189026 0.000000 0.000000
												CHANNELS 3 Xrotation Yrotation Zrotation
												End Site
												{
													OFFSET 0.236702 5.183624 0.001972
												}
											}
										}
									}
								}
							}
						}
					}
				}
			}
		}
	}
	JOINT LeftUpLeg
	{
		OFFSET 14.073000 -7.904099 -1.463000
		CHANNELS 3 Xrotation Yrotation Zrotation
		JOINT LeftLeg
		{
			OFFSET -0.109806 -34.073280 4.093200
			CHANNELS 3 Xrotation Yrotation Zrotation
			JOINT LeftFoot
			{
				OFFSET 0.109806 -29.899420 -6.319000
				CHANNELS 3 Xrotation Yrotation Zrotation
				JOINT LeftToeBase
				{
					OFFSET 1.551100 -14.988700 20.535801
					CHANNELS 3 Xrotation Yrotation Zrotation
					JOINT LeftToe_End
					{
						OFFSET 0.221200 0.570800 13.248301
						CHANNELS 3 Xrotation Yrotation Zrotation
						End Site
						{
							OFFSET 0.000000 13.262435 0.000000
						}
					}
				}
			}
		}
	}
	JOINT RightUpLeg
	{
		OFFSET -13.839300 -7.904099 -1.463000
		CHANNELS 3 Xrotation Yrotation Zrotation
		JOINT RightLeg
		{
			OFFSET 0.109694 -34.073219 4.093300
			CHANNELS 3 Xrotation Yrotation Zrotation
			JOINT RightFoot
			{
				OFFSET -0.109694 -29.899384 -6.319200
				CHANNELS 3 Xrotation Yrotation Zrotation
				JOINT RightToeBase
				{
					OFFSET -1.551100 -14.988700 20.535801
					CHANNELS 3 Xrotation Yrotation Zrotation
					JOINT RightToe_End
					{
						OFFSET -0.221200 0.570900 13.248299
						CHANNELS 3 Xrotation Yrotation Zrotation
						End Site
						{
							OFFSET 0.000000 13.262440 0.000000
						}
					}
				}
			}
		}
	}
}
MOTION
Frames: 9
Frame Time: 0.033333
0.739586 75.379745 0.455933 -8.622227 -26.893778 -7.542909 22.948165 -1.684428 5.237170 2.925349 -0.455245 0.389976 2.925937 -0.449017 0.394547 7.783761 0.232658 8.763477 8.624890 11.513486 -0.139598 -0.000001 -0.000001 -0.000001 0.754345 -14.814137 -8.021718 -73.618361 -31.673291 -50.903026 -0.000039 -40.760281 -0.000043 -127.485768 4.876769 17.768645 -0.212819 3.933727 -36.747121 2.942147 5.078905 -60.144610 0.513676 2.400811 -24.150506 0.000001 0.000001 0.000000 4.709226 9.560380 3.111989 19.473185 -1.474910 7.636919 -4.536187 -9.613092 1.492976 -0.000001 -0.000002 0.000000 0.366705 8.050716 15.174261 -38.219806 54.135331 52.109101 0.000188 99.500147 -0.000198 -45.592657 -23.666351 -28.073587 8.377135 -4.904122 11.021997 21.620185 -18.183917 -18.379216 -0.702873 -49.821210 -32.535148 -0.000002 0.000000 -0.000003 -0.920027 1.683584 12.434973 0.748114 -2.533474 32.898299 0.615647 -2.316061 29.767819 0.000000 -0.000000 0.000000 -34.498370 23.102758 21.381554 87.898982 -5.848950 3.733197 -1.790504 -1.007072 15.803068 -47.076505 4.323303 -5.852810 0.000000 0.000000 -0.000000 -24.609785 -5.728427 13.352616 54.143425 -10.589315 -10.244689 -22.324209 -1.412490 2.229361 -11.330456 -0.000005 -0.000000 -0.000000 0.000000 -0.000000 
0.361225 76.580826 4.517835 -9.106327 -27.492160 -7.674769 23.452812 -1.908556 4.453233 2.545737 -2.179148 0.747298 2.540863 -2.144925 0.857909 15.305501 1.796103 7.628232 4.037328 13.842672 -1.532687 -0.000004 0.000000 -0.000001 0.789906 -14.815041 -7.661415 -69.444739 -24.993981 -44.670185 -0.000008 -51.946953 -0.000013 -125.034618 2.788562 23.802608 -0.088940 4.339343 -40.470476 3.281414 5.258368 -63.909267 0.449019 2.251198 -22.557432 -0.000002 -0.000001 0.000001 4.809318 10.669539 3.273531 19.500433 -0.356512 7.780630 -4.141254 -8.593001 1.837296 -0.000000 -0.000000 0.000000 0.324149 8.538120 15.736488 -39.975936 57.533053 55.617284 0.000121 97.821641 -0.000113 -45.847542 -20.963558 -26.810296 8.377135 -4.904122 11.021997 21.620183 -18.183917 -18.379214 -0.702876 -49.821213 -32.535152 -0.000000 0.000001 -0.000002 -0.920027 1.683583 12.434974 2.526692 -4.142234 62.750819 2.303098 -4.019561 59.610053 0.000000 -0.000000 -0.000002 -39.827014 19.773667 22.539208 85.174481 -6.378164 3.022570 -4.488567 -1.307991 17.888110 -30.343699 4.907336 -10.486272 0.000000 -0.000000 0.000000 -20.299729 -4.566220 12.408572 53.183869 -10.020041 -10.306341 -24.144239 -2.047045 2.663300 -13.248262 0.000002 -0.000001 0.000002 -0.000002 -0.000000 
0.044692 77.813210 8.447283 -9.205911 -28.068237 -7.191693 23.649933 -2.107469 3.217837 2.305875 -3.409431 0.931510 2.307153 -3.355495 1.125963 13.827735 1.986757 8.896052 5.894693 16.433729 -3.145094 -0.000002 0.000000 -0.000000 0.820818 -14.939664 -7.372175 -68.210231 -21.039208 -40.811330 0.000030 -58.351877 0.000026 -123.373051 2.035861 28.099598 0.045950 4.699979 -43.877163 3.601405 5.402679 -67.352775 0.393568 2.112874 -21.101294 -0.000001 0.000001 -0.000001 4.970903 12.530361 3.541451 19.539843 1.519279 8.020528 -3.494899 -6.877116 2.397003 0.000000 -0.000000 0.000000 0.280918 8.960782 16.291476 -42.136263 59.659886 58.607859 -0.000258 96.854780 0.000217 -46.426678 -19.301124 -26.072126 8.377136 -4.904121 11.021997 21.620185 -18.183915 -18.379213 -0.702875 -49.821217 -32.535155 0.000000 -0.000001 0.000003 -0.920026 1.683583 12.434972 2.582394 -4.170384 63.519339 2.349512 -4.046340 60.269678 0.000000 0.000000 0.000002 -43.233120 17.007484 23.017502 78.200899 -7.479822 2.043557 -3.255424 -1.166042 17.968742 -17.035593 3.220491 -13.560763 0.000000 -0.000001 0.000000 -16.916285 -3.444344 10.948595 52.695521 -9.205181 -10.432509 -24.971573 -3.058295 2.969855 -15.452728 0.000019 0.000003 0.000001 0.000001 0.000000 
-0.324320 79.001823 12.380324 -8.591932 -28.517754 -6.234772 23.514468 -1.606780 1.842905 2.327606 -3.245474 0.809566 2.335464 -3.189493 1.022027 10.969011 0.786877 11.017564 6.770363 17.552628 -3.055364 -0.000000 -0.000000 0.000001 0.831945 -15.533998 -7.342055 -69.455620 -22.851955 -40.755141 -0.000001 -55.857144 0.000015 -123.243879 2.937472 27.276666 0.104954 4.841363 -45.251882 3.732848 5.455439 -68.741906 0.372211 2.056708 -20.514116 -0.000005 -0.000000 0.000004 5.031821 13.256257 3.645010 19.553095 2.250877 8.113792 -3.248029 -6.206269 2.609460 0.000000 0.000001 -0.000001 0.265421 9.063186 16.598552 -43.217479 59.233880 59.302407 -0.000024 96.119886 -0.000028 -45.927049 -18.765103 -25.840189 8.377134 -4.904122 11.021997 21.620180 -18.183917 -18.379213 -0.702874 -49.821217 -32.535148 0.000000 -0.000000 -0.000004 -0.920028 1.683584 12.434971 2.655772 -4.206053 64.524217 2.393122 -4.070873 60.885911 0.000000 -0.000001 -0.000004 -45.797959 14.837519 22.919485 68.612624 -8.375228 1.038005 -1.380925 0.039239 16.181386 -10.304659 0.218014 -4.145705 0.000001 0.000000 0.000000 -14.287338 -2.490113 9.332524 52.325707 -8.472856 -10.634864 -25.330679 -4.177125 3.032198 -17.823017 0.000001 0.000000 -0.000000 -0.000000 -0.000000 
-0.730377 80.049835 16.405359 -7.520958 -28.704652 -5.195521 23.241959 -0.864243 0.775181 2.446679 -2.335199 0.562192 2.482785 -2.287771 0.754662 8.362478 -0.891884 12.236564 7.257779 16.954032 -1.891467 0.000000 -0.000000 0.000002 0.835412 -15.997008 -7.348116 -72.258525 -27.563435 -43.413956 -0.000045 -48.620408 -0.000047 -123.913934 4.632230 23.667760 0.100031 4.830195 -45.144504 3.722536 5.451428 -68.633443 0.373865 2.061106 -20.559969 -0.000000 -0.000000 0.000002 5.027939 13.209632 3.638372 19.552281 2.203880 8.107811 -3.263793 -6.249382 2.595904 -0.000001 0.000001 0.000002 0.273924 8.980229 16.636683 -43.447315 57.530813 58.340737 -0.000335 95.881950 0.000284 -45.094275 -19.029276 -26.143586 8.377135 -4.904122 11.021999 21.620187 -18.183917 -18.379214 -0.702876 -49.821206 -32.535148 -0.000000 0.000001 -0.000002 -0.920027 1.683583 12.434975 2.755818 -4.252156 65.880781 2.435625 -4.094194 61.482918 0.000000 -0.000001 -0.000002 -47.737930 13.118878 22.380802 57.235090 -7.304197 0.766536 0.851741 0.924911 12.781347 -10.156383 -0.000003 0.000011 -0.000000 -0.000002 0.000000 -11.847294 -1.662705 7.721940 51.705645 -7.825286 -10.872461 -25.308829 -5.427282 3.478902 -20.388074 0.000000 0.000001 0.000000 0.000000 -0.000000 
-1.123073 80.904221 20.451263 -6.597853 -28.693201 -4.277679 23.323708 -0.337430 0.023868 2.688211 -1.230567 0.291791 2.748099 -1.193558 0.456553 7.216923 -2.038718 11.402191 6.048118 15.508527 0.783577 0.000003 0.000001 0.000001 0.854869 -15.912495 -7.151721 -76.469370 -32.451526 -47.807216 -0.000004 -40.289592 -0.000003 -124.960838 6.651312 19.380146 0.054472 4.723203 -44.117370 3.624280 5.412127 -67.595391 0.389799 2.103090 -20.998711 -0.000004 -0.000001 -0.000000 4.990593 12.763474 3.574768 19.544221 1.754244 8.050496 -3.415313 -6.661775 2.465581 -0.000001 -0.000001 0.000000 0.270886 9.091427 16.678647 -43.272390 55.579473 56.476795 -0.000235 96.574572 0.000259 -44.261723 -20.223692 -27.032164 8.377135 -4.904122 11.021999 21.620187 -18.183917 -18.379214 -0.702874 -49.821206 -32.535148 -0.000001 0.000001 0.000002 -0.920028 1.683584 12.434974 2.863265 -4.298498 67.321923 2.451377 -4.102682 61.703219 0.000000 -0.000000 -0.000001 -47.837924 12.281635 21.429225 45.309696 -5.715450 0.756129 2.029107 3.102865 8.664915 -9.023400 0.000001 -0.000007 -0.000000 0.000000 -0.000000 -8.911174 -0.883212 6.044297 50.584811 -7.273550 -11.139876 -25.265872 -7.006377 4.160272 -23.040050 -0.000006 -0.000004 -0.000000 -0.000001 -0.000000 
-1.387108 81.598000 24.665852 -6.382579 -28.862160 -3.794635 23.982527 0.169806 -0.477218 2.968984 -0.383134 0.096132 3.013003 -0.348823 0.255977 6.991199 -2.836876 10.378208 4.616804 14.252951 2.748981 -0.000002 0.000001 0.000001 0.883349 -15.634293 -6.862597 -79.919490 -35.070463 -51.628109 0.000007 -35.375257 0.000003 -125.947322 7.937501 16.624616 -0.013066 4.553352 -42.502385 3.471231 5.346758 -65.963132 0.415520 2.168860 -21.688796 -0.000000 0.000001 0.000000 4.930962 12.061853 3.474342 19.530660 1.047053 7.960247 -3.655790 -7.309648 2.258144 0.000001 -0.000001 0.000000 0.254822 9.362830 16.789874 -42.753337 53.972114 54.640260 0.000491 98.205402 -0.000563 -43.451037 -22.113356 -28.165403 8.377135 -4.904122 11.021999 21.620183 -18.183917 -18.379211 -0.702874 -49.821213 -32.535159 -0.000002 0.000001 -0.000001 -0.920027 1.683584 12.434975 2.958003 -4.336772 68.580338 2.414690 -4.082771 61.189206 0.000000 -0.000002 -0.000000 -45.721392 12.520039 19.957587 35.850621 0.758730 2.498953 -1.096090 2.459061 3.332044 -3.897685 0.000004 -0.000003 0.000001 0.000000 -0.000000 -4.758092 -0.132713 4.070531 48.518317 -6.681698 -11.429002 -25.312777 -8.519965 5.014095 -25.375915 -0.000015 -0.000002 -0.000000 0.000002 0.000001 
-1.345888 81.908340 29.229816 -7.008696 -29.070689 -3.778378 24.783937 0.591278 -0.745263 3.145078 -0.249078 0.093781 3.128850 -0.204973 0.292259 8.692600 -3.238029 11.369518 3.190480 14.043204 1.569176 0.000001 0.000001 -0.000001 0.899240 -15.455446 -6.701855 -80.015769 -35.065829 -52.519015 0.000007 -35.614553 0.000007 -126.810836 7.650694 16.195121 -0.084840 4.354487 -40.631341 3.296309 5.265604 -64.071778 0.446319 2.244709 -22.488676 -0.000000 -0.000000 -0.000002 4.860463 11.248814 3.357329 19.513547 0.227471 7.855447 -3.937913 -8.059476 2.013911 -0.000001 -0.000003 0.000000 0.246218 9.439059 16.941432 -42.031966 53.375452 53.562016 0.000278 99.449815 -0.000304 -43.057099 -23.577772 -28.597000 8.377136 -4.904122 11.021997 21.620183 -18.183917 -18.379214 -0.702878 -49.821210 -32.535148 -0.000000 0.000002 0.000002 -0.920027 1.683583 12.434974 3.019304 -4.360245 69.388650 2.301256 -4.018465 59.583606 0.000000 -0.000001 0.000002 -40.775082 13.710288 18.248220 29.445427 2.718450 3.294760 -6.725165 6.771441 -0.432762 -1.193691 0.000001 -0.000000 -0.000001 -0.000000 0.000000 0.146163 0.578459 1.460342 46.568530 -6.088986 -11.704339 -25.011869 -9.692582 7.157942 -28.339232 0.000003 -0.000001 -0.000000 -0.000001 0.000000 
-1.128755 81.824173 34.072090 -7.967914 -28.505199 -3.192593 25.509640 -0.138993 -1.108708 3.252957 -1.338636 0.232273 3.226825 -1.336255 0.605978 10.435544 -2.687514 12.129963 2.586248 15.479051 -0.646895 -0.000000 0.000000 -0.000001 0.894373 -15.414058 -6.746027 -75.944682 -32.044389 -48.503079 -0.000006 -42.841743 -0.000006 -127.157263 5.245353 18.644079 -0.145029 4.164371 -38.835380 3.130996 5.182300 -62.256307 0.476889 2.317114 -23.256738 0.000002 0.000001 0.000000 4.791370 10.468333 3.244330 19.495701 -0.559400 7.754592 -4.212359 -8.778249 1.775436 0.000001 -0.000001 -0.000000 0.248782 9.211345 17.170450 -41.996791 54.858730 54.371762 0.000186 99.158911 -0.000202 -42.490822 -22.879988 -27.290226 8.377135 -4.904122 11.021998 21.620183 -18.183917 -18.379213 -0.702874 -49.821213 -32.535155 -0.000001 0.000000 0.000002 -0.920026 1.683582 12.434973 2.973989 -4.342996 68.791521 2.078654 -3.879520 56.351916 0.000001 -0.000000 0.000002 -34.219821 15.619929 14.608253 25.235659 2.911358 3.724026 -10.135694 10.636533 -0.242251 -2.722927 -0.000000 0.000001 -0.000001 0.000001 0.000000 4.028647 1.445691 -2.475708 47.164488 -6.094511 -11.916727 -22.682269 -10.998822 12.088614 -34.051017 -0.000014 -0.000004 -0.000001 0.000003 0.000001 
